<svg width="40" height="40" viewBox="0 0 40 40" fill="none" xmlns="http://www.w3.org/2000/svg">
<path d="M16.2419 30.6934C22.1477 30.6934 26.9354 25.9058 26.9354 19.9999C26.9354 14.094 22.1477 9.3064 16.2419 9.3064C10.336 9.3064 5.54834 14.094 5.54834 19.9999C5.54834 25.9058 10.336 30.6934 16.2419 30.6934Z" fill="url(#paint0_linear_1596_10641)"/>
<path d="M26.9104 12.5131C26.5868 12.5131 26.2703 12.5359 25.958 12.5758C27.8144 14.4992 28.9579 17.1141 28.9579 19.9985C28.9579 22.8829 27.8144 25.4978 25.958 27.4212C26.2703 27.4612 26.5882 27.484 26.9104 27.484C31.0438 27.484 34.3959 24.1319 34.3959 19.9985C34.3959 15.8651 31.0438 12.5131 26.9104 12.5131Z" fill="black"/>
<path d="M26.9357 19.9991C26.9357 17.2773 25.9162 14.7935 24.2423 12.9058C21.2809 13.9038 19.1479 16.7012 19.1479 19.9991C19.1479 23.297 21.2809 26.0944 24.2423 27.0925C25.9177 25.2047 26.9357 22.7224 26.9357 19.9991Z" fill="#000AFF"/>
<defs>
<linearGradient id="paint0_linear_1596_10641" x1="5.54834" y1="19.9999" x2="26.9354" y2="19.9999" gradientUnits="userSpaceOnUse">
<stop stop-color="#000AFF" stop-opacity="0.05"/>
<stop offset="0.11" stop-color="#000AFF" stop-opacity="0.0289"/>
<stop offset="0.34" stop-color="#000AFF" stop-opacity="0.1296"/>
<stop offset="0.67" stop-color="#000AFF" stop-opacity="0.4489"/>
<stop offset="1" stop-color="#000AFF"/>
</linearGradient>
</defs>
</svg>
