<svg xmlns="http://www.w3.org/2000/svg" width="96" height="17" viewBox="0 0 96 17" fill="none">
  <g clip-path="url(#clip0_1747_2417)">
    <path d="M7.08249 9.06441C7.81988 9.06441 8.40422 8.80941 8.83553 8.29941C9.28075 7.77525 9.50336 7.074 9.50336 6.19566C9.50336 5.31733 9.28075 4.62316 8.83553 4.11316C8.40422 3.589 7.81988 3.32691 7.08249 3.32691H3.24249V9.06441H7.08249ZM0.0703125 0.564415H7.77118C8.71727 0.564415 9.55901 0.798165 10.2964 1.26566C11.0477 1.73316 11.6321 2.38483 12.0494 3.22066C12.4668 4.0565 12.6755 5.00566 12.6755 6.06816C12.6755 7.13066 12.446 8.094 11.9868 8.95816C11.5277 9.80816 10.7068 10.5732 9.52422 11.2532L13.4268 16.6719H9.50336L5.99727 11.8269H3.24249V16.6719H0.0703125V0.564415ZM23.7733 10.8069C23.7733 8.76691 22.9454 7.74691 21.2898 7.74691C20.6359 7.76108 20.0794 8.04441 19.6202 8.59691C19.1611 9.13525 18.9454 9.87191 18.9733 10.8069V16.6719H15.8011V5.09066H18.9733V7.00316C19.2376 6.479 19.662 6.04691 20.2463 5.70691C20.8307 5.35275 21.4289 5.17566 22.0411 5.17566C22.7089 5.17566 23.4115 5.3315 24.1489 5.64316C24.9002 5.94066 25.5541 6.51441 26.1107 7.36441C26.6672 8.20025 26.9454 9.34775 26.9454 10.8069V16.6719H23.7733V10.8069ZM35.2131 13.8669C36.6878 13.8669 37.8496 13.3994 38.6983 12.4644C39.5609 11.5152 39.9922 10.2332 39.9922 8.61816C39.9922 7.00316 39.5609 5.72816 38.6983 4.79316C37.8496 3.844 36.6878 3.36941 35.2131 3.36941L32.7087 3.39066V13.8457L35.2131 13.8669ZM29.5365 0.564415H35.2757C36.8061 0.564415 38.1696 0.904415 39.3661 1.58441C40.5626 2.26441 41.4948 3.22066 42.1626 4.45316C42.8304 5.6715 43.1644 7.05983 43.1644 8.61816C43.1644 10.1765 42.8304 11.5719 42.1626 12.8044C41.4948 14.0227 40.5626 14.9719 39.3661 15.6519C38.1696 16.3319 36.8061 16.6719 35.2757 16.6719H29.5365V0.564415ZM49.7621 13.6969C50.096 13.6969 50.4508 13.6048 50.8264 13.4207C51.2021 13.2365 51.5429 12.9886 51.849 12.6769L53.8942 14.9507C53.4073 15.4748 52.7812 15.8998 52.016 16.2257C51.2647 16.5515 50.5412 16.7144 49.8455 16.7144C48.7325 16.7144 47.7377 16.4665 46.8612 15.9707C45.9986 15.4748 45.3238 14.7877 44.8368 13.9094C44.3499 13.0311 44.1064 12.0323 44.1064 10.9132C44.1064 9.794 44.3499 8.79525 44.8368 7.91691C45.3238 7.02441 45.9986 6.33025 46.8612 5.83441C47.7377 5.33858 48.7325 5.09066 49.8455 5.09066C50.6247 5.09066 51.3621 5.2465 52.0577 5.55816C52.7534 5.86983 53.3655 6.30191 53.8942 6.85441L51.849 9.10691C51.529 8.79525 51.1812 8.55441 50.8055 8.38441C50.4438 8.20025 50.096 8.10816 49.7621 8.10816C48.9968 8.10816 48.3916 8.36316 47.9464 8.87316C47.5012 9.369 47.2786 10.049 47.2786 10.9132C47.2786 11.7632 47.5012 12.4432 47.9464 12.9532C48.3916 13.449 48.9968 13.6969 49.7621 13.6969ZM58.9601 5.26066V16.6719H55.7879V5.26066H58.9601ZM55.7253 1.79691C55.7253 1.30108 55.8784 0.897331 56.1845 0.585664C56.5045 0.273997 56.901 0.118164 57.374 0.118164C57.861 0.118164 58.2575 0.273997 58.5636 0.585664C58.8697 0.897331 59.0227 1.30108 59.0227 1.79691C59.0227 2.27858 58.8697 2.68233 58.5636 3.00816C58.2575 3.31983 57.861 3.47566 57.374 3.47566C56.901 3.47566 56.5045 3.31983 56.1845 3.00816C55.8784 2.68233 55.7253 2.27858 55.7253 1.79691ZM64.8995 6.96066C65.2195 6.42233 65.6578 5.98316 66.2143 5.64316C66.7847 5.289 67.3621 5.11191 67.9465 5.11191V7.91691C67.3204 7.91691 66.7708 8.094 66.2978 8.44816C65.8387 8.78817 65.4908 9.21316 65.2543 9.72316C65.0178 10.219 64.8995 10.7007 64.8995 11.1682V16.6719H61.7691V5.09066H64.8995V6.96066ZM74.0091 13.6969C74.343 13.6969 74.6978 13.6048 75.0734 13.4207C75.4491 13.2365 75.79 12.9886 76.096 12.6769L78.1413 14.9507C77.6543 15.4748 77.0282 15.8998 76.263 16.2257C75.5117 16.5515 74.7882 16.7144 74.0926 16.7144C72.9795 16.7144 71.9847 16.4665 71.1082 15.9707C70.2456 15.4748 69.5708 14.7877 69.0837 13.9094C68.5967 13.0311 68.3532 12.0323 68.3532 10.9132C68.3532 9.794 68.5967 8.79525 69.0837 7.91691C69.5708 7.02441 70.2456 6.33025 71.1082 5.83441C71.9847 5.33858 72.9795 5.09066 74.0926 5.09066C74.8717 5.09066 75.6091 5.2465 76.3047 5.55816C77.0004 5.86983 77.6126 6.30191 78.1413 6.85441L76.096 9.10691C75.776 8.79525 75.4282 8.55441 75.0526 8.38441C74.6908 8.20025 74.343 8.10816 74.0091 8.10816C73.2439 8.10816 72.6387 8.36316 72.1934 8.87316C71.7482 9.369 71.5256 10.049 71.5256 10.9132C71.5256 11.7632 71.7482 12.4432 72.1934 12.9532C72.6387 13.449 73.2439 13.6969 74.0091 13.6969ZM82.7479 0.564415V16.6719H79.5757V0.564415H82.7479ZM92.5357 9.74441C92.4105 9.20608 92.1253 8.7315 91.68 8.32066C91.2487 7.89566 90.6992 7.68316 90.0313 7.68316C89.3635 7.68316 88.7861 7.88858 88.2992 8.29941C87.8122 8.71025 87.5061 9.19191 87.3809 9.74441H92.5357ZM84.5009 10.9344C84.5009 9.80108 84.7305 8.79525 85.1896 7.91691C85.6627 7.03858 86.3166 6.3515 87.1514 5.85566C88 5.35983 88.96 5.11191 90.0313 5.11191C91.534 5.11191 92.6539 5.49441 93.3913 6.25941C94.1287 7.01025 94.6087 7.669 94.8313 8.23566C95.1792 8.944 95.3531 9.87191 95.3531 11.0194L95.3322 11.9544H87.3809C87.4922 12.5919 87.8122 13.1161 88.3409 13.5269C88.8835 13.9236 89.454 14.1219 90.0522 14.1219C90.5948 14.1219 91.054 14.0298 91.4296 13.8457C91.8053 13.6615 92.0835 13.4348 92.2644 13.1657L94.8522 14.1432C94.5044 14.8657 93.92 15.4748 93.0992 15.9707C92.2783 16.4665 91.2557 16.7144 90.0313 16.7144C88.96 16.7144 88 16.4736 87.1514 15.9919C86.3166 15.4961 85.6627 14.809 85.1896 13.9307C84.7305 13.0523 84.5009 12.0536 84.5009 10.9344Z" fill="#06191D"/>
  </g>
  <defs>
    <clipPath id="clip0_1747_2417">
      <rect width="96" height="17" fill="white"/>
    </clipPath>
  </defs>
</svg>
