<svg width="103" height="24" viewBox="0 0 103 24" fill="none" xmlns="http://www.w3.org/2000/svg">
<path d="M10 22C15.5228 22 20 17.5228 20 12C20 6.47715 15.5228 2 10 2C4.47715 2 0 6.47715 0 12C0 17.5228 4.47715 22 10 22Z" fill="url(#paint0_linear_1613_4467)"/>
<path d="M19.9766 4.99866C19.6739 4.99866 19.3779 5.01999 19.0859 5.05732C20.8219 6.85599 21.8913 9.30132 21.8913 11.9987C21.8913 14.696 20.8219 17.1413 19.0859 18.94C19.3779 18.9773 19.6753 18.9987 19.9766 18.9987C23.8419 18.9987 26.9766 15.864 26.9766 11.9987C26.9766 8.13332 23.8419 4.99866 19.9766 4.99866Z" fill="black"/>
<path d="M20.0004 11.9993C20.0004 9.45397 19.0471 7.1313 17.4818 5.36597C14.7124 6.2993 12.7178 8.9153 12.7178 11.9993C12.7178 15.0833 14.7124 17.6993 17.4818 18.6326C19.0484 16.8673 20.0004 14.546 20.0004 11.9993Z" fill="#000AFF"/>
<path d="M100.198 12.9743C100.105 12.5794 99.8917 12.2312 99.5591 11.9298C99.2369 11.618 98.8264 11.4621 98.3275 11.4621C97.8287 11.4621 97.3973 11.6128 97.0336 11.9142C96.6698 12.2156 96.4412 12.569 96.3476 12.9743H100.198ZM94.1963 13.8474C94.1963 13.0159 94.3678 12.278 94.7107 11.6336C95.0641 10.9893 95.5526 10.4852 96.1762 10.1214C96.8101 9.75768 97.5273 9.57581 98.3275 9.57581C99.45 9.57581 100.287 9.85642 100.837 10.4176C101.388 10.9685 101.747 11.4518 101.913 11.8675C102.173 12.3871 102.303 13.0679 102.303 13.9097L102.287 14.5957H96.3476C96.4308 15.0633 96.6698 15.4479 97.0648 15.7493C97.4701 16.0403 97.8962 16.1858 98.3431 16.1858C98.7484 16.1858 99.0914 16.1182 99.372 15.9831C99.6526 15.848 99.8605 15.6817 99.9956 15.4843L101.929 16.2014C101.669 16.7314 101.232 17.1783 100.619 17.5421C100.006 17.9058 99.2421 18.0877 98.3275 18.0877C97.5273 18.0877 96.8101 17.911 96.1762 17.5577C95.5526 17.1939 95.0641 16.6899 94.7107 16.0455C94.3678 15.4011 94.1963 14.6684 94.1963 13.8474Z" fill="black"/>
<path d="M93.1357 6.2395V18.0564H90.7661V6.2395H93.1357Z" fill="black"/>
<path d="M86.8566 15.874C87.1061 15.874 87.3711 15.8064 87.6517 15.6713C87.9323 15.5362 88.1869 15.3543 88.4156 15.1257L89.9434 16.7937C89.5796 17.1783 89.1119 17.4901 88.5403 17.7291C87.9791 17.9682 87.4386 18.0877 86.919 18.0877C86.0875 18.0877 85.3444 17.9058 84.6897 17.542C84.0453 17.1783 83.5412 16.6742 83.1775 16.0299C82.8137 15.3855 82.6318 14.6528 82.6318 13.8317C82.6318 13.0107 82.8137 12.278 83.1775 11.6336C83.5412 10.9788 84.0453 10.4696 84.6897 10.1058C85.3444 9.74206 86.0875 9.56018 86.919 9.56018C87.501 9.56018 88.0518 9.6745 88.5715 9.90315C89.0911 10.1318 89.5484 10.4488 89.9434 10.8541L88.4156 12.5066C88.1765 12.278 87.9167 12.1013 87.6361 11.9766C87.3659 11.8415 87.1061 11.7739 86.8566 11.7739C86.285 11.7739 85.8329 11.961 85.5003 12.3351C85.1677 12.6989 85.0015 13.1978 85.0015 13.8317C85.0015 14.4553 85.1677 14.9542 85.5003 15.3283C85.8329 15.6921 86.285 15.874 86.8566 15.874Z" fill="black"/>
<path d="M80.3018 10.9321C80.5409 10.5371 80.8682 10.2149 81.284 9.96551C81.7101 9.70568 82.1414 9.57577 82.5779 9.57577V11.6336C82.1102 11.6336 81.6997 11.7635 81.3463 12.0233C81.0033 12.2728 80.7435 12.5846 80.5668 12.9587C80.3902 13.3225 80.3018 13.6758 80.3018 14.0188V18.0565H77.9634V9.56018H80.3018V10.9321Z" fill="black"/>
<path d="M76.1146 9.68491V18.0565H73.745V9.68491H76.1146ZM73.6982 7.14381C73.6982 6.78005 73.8126 6.48385 74.0412 6.2552C74.2803 6.02655 74.5765 5.91223 74.9298 5.91223C75.2936 5.91223 75.5898 6.02655 75.8184 6.2552C76.0471 6.48385 76.1614 6.78005 76.1614 7.14381C76.1614 7.49717 76.0471 7.79337 75.8184 8.03242C75.5898 8.26106 75.2936 8.37539 74.9298 8.37539C74.5765 8.37539 74.2803 8.26106 74.0412 8.03242C73.8126 7.79337 73.6982 7.49717 73.6982 7.14381Z" fill="black"/>
<path d="M69.3376 15.874C69.587 15.874 69.852 15.8064 70.1326 15.6713C70.4133 15.5362 70.6679 15.3543 70.8965 15.1257L72.4243 16.7937C72.0606 17.1783 71.5929 17.4901 71.0212 17.7291C70.46 17.9682 69.9196 18.0877 69.3999 18.0877C68.5685 18.0877 67.8254 17.9058 67.1706 17.542C66.5262 17.1783 66.0222 16.6742 65.6584 16.0299C65.2947 15.3855 65.1128 14.6528 65.1128 13.8317C65.1128 13.0107 65.2947 12.278 65.6584 11.6336C66.0222 10.9788 66.5262 10.4696 67.1706 10.1058C67.8254 9.74206 68.5685 9.56018 69.3999 9.56018C69.9819 9.56018 70.5328 9.6745 71.0524 9.90315C71.5721 10.1318 72.0294 10.4488 72.4243 10.8541L70.8965 12.5066C70.6575 12.278 70.3977 12.1013 70.117 11.9766C69.8468 11.8415 69.587 11.7739 69.3376 11.7739C68.766 11.7739 68.3139 11.961 67.9813 12.3351C67.6487 12.6989 67.4824 13.1978 67.4824 13.8317C67.4824 14.4553 67.6487 14.9542 67.9813 15.3283C68.3139 15.6921 68.766 15.874 69.3376 15.874Z" fill="black"/>
<path d="M58.5631 15.9986C59.6648 15.9986 60.5326 15.6556 61.1666 14.9697C61.811 14.2733 62.1331 13.3328 62.1331 12.148C62.1331 10.9631 61.811 10.0278 61.1666 9.34183C60.5326 8.6455 59.6648 8.29733 58.5631 8.29733L56.6924 8.31292V15.983L58.5631 15.9986ZM54.3228 6.2395H58.6099C59.7531 6.2395 60.7716 6.48894 61.6654 6.9878C62.5593 7.48667 63.2556 8.1882 63.7545 9.0924C64.2533 9.9862 64.5028 11.0047 64.5028 12.148C64.5028 13.2912 64.2533 14.3149 63.7545 15.2191C63.2556 16.1129 62.5593 16.8092 61.6654 17.3081C60.7716 17.807 59.7531 18.0564 58.6099 18.0564H54.3228V6.2395Z" fill="black"/>
<path d="M50.2667 13.7538C50.2667 12.2572 49.6484 11.5089 48.4116 11.5089C47.9231 11.5193 47.5074 11.7271 47.1644 12.1325C46.8214 12.5274 46.6604 13.0678 46.6811 13.7538V18.0565H44.3115V9.56018H46.6811V10.9632C46.8786 10.5787 47.1956 10.2617 47.6321 10.0123C48.0686 9.75245 48.5155 9.62254 48.9728 9.62254C49.4717 9.62254 49.9965 9.73686 50.5474 9.96551C51.1086 10.1838 51.5971 10.6047 52.0128 11.2283C52.4285 11.8415 52.6364 12.6833 52.6364 13.7538V18.0565H50.2667V13.7538Z" fill="black"/>
<path d="M38.0482 12.4753C38.599 12.4753 39.0355 12.2883 39.3577 11.9141C39.6903 11.5296 39.8566 11.0151 39.8566 10.3707C39.8566 9.72637 39.6903 9.21712 39.3577 8.84297C39.0355 8.45842 38.599 8.26615 38.0482 8.26615H35.1797V12.4753H38.0482ZM32.8101 6.2395H38.5626C39.2693 6.2395 39.8981 6.41099 40.449 6.75396C41.0102 7.09693 41.4467 7.57501 41.7585 8.1882C42.0703 8.80139 42.2262 9.49773 42.2262 10.2772C42.2262 11.0567 42.0547 11.7634 41.7117 12.3974C41.3687 13.021 40.7556 13.5822 39.8721 14.0811L42.7874 18.0564H39.8566L37.2375 14.502H35.1797V18.0564H32.8101V6.2395Z" fill="black"/>
<defs>
<linearGradient id="paint0_linear_1613_4467" x1="0" y1="12" x2="20" y2="12" gradientUnits="userSpaceOnUse">
<stop stop-color="#000AFF" stop-opacity="0.05"/>
<stop offset="0.11" stop-color="#000AFF" stop-opacity="0.0289"/>
<stop offset="0.34" stop-color="#000AFF" stop-opacity="0.1296"/>
<stop offset="0.67" stop-color="#000AFF" stop-opacity="0.4489"/>
<stop offset="1" stop-color="#000AFF"/>
</linearGradient>
</defs>
</svg>
